%MOIN*%
%FSLAX54Y54*%
%ADD10C,0.0139*%
%ADD11C,0.1111*%
%ADD12C,0.0069*%
%ADD13C,0.0333*%
%ADD14C,0.0167*%
%ADD15C,0.0339*%
%ADD16C,0.0486*%
%ADD17C,0.0861*%
%ADD18C,0.0000*%
%ADD19C,0.0556*%
%ADD20C,0.1056*%
%ADD21C,0.1028*%
%ADD22C,0.0438*%
G75*
D10*
G36*
X3982Y-763068D02*
X3982Y-789457D01*
X35093Y-789457D01*
X35093Y-763068D01*
X3982Y-763068D01*
G37*
X24979Y-780091D02*
X26368Y-781480D01*
X24979Y-781480D02*
X26368Y-780091D01*
D11*
X25673Y-780785D03*
D12*
G01X26229Y-780785D02*
G03X26229Y-780785I-556J0D01*G01*
D13*
X21784Y-777871D03*
D14*
X21784Y-777871D03*
D15*
X23798Y-773702D03*
D14*
X23798Y-773702D03*
D15*
X24215Y-772174D03*
D14*
X24215Y-772174D03*
D15*
X15465Y-773702D03*
D14*
X15465Y-773702D03*
X17756Y-774674D02*
X16534Y-773132D01*
X17756Y-774674D02*
X18840Y-772591D01*
X20701Y-772313D01*
X23006Y-772049D01*
X20701Y-772313D02*
X21368Y-774605D01*
X17756Y-774674D02*
X17048Y-778494D01*
X18381Y-780230D01*
X22687Y-779882D01*
X26020Y-777452D01*
X16534Y-773132D02*
X12826Y-776063D01*
D10*
G36*
X13256Y-772855D02*
X12395Y-772855D01*
X12395Y-773716D01*
X13256Y-773716D01*
X13256Y-772855D01*
G37*
D16*
X12826Y-773285D03*
D17*
X12826Y-771896D03*
D16*
X12826Y-771896D03*
G36*
X25590Y-772327D02*
X26451Y-772327D01*
X26451Y-771466D01*
X25590Y-771466D01*
X25590Y-772327D01*
G37*
X26020Y-771896D03*
D17*
X26020Y-773285D03*
D16*
X26020Y-773285D03*
G36*
X16666Y-774182D02*
X15791Y-774182D01*
X15791Y-775166D01*
X16666Y-775166D01*
X16666Y-774182D01*
G37*
D18*
X16229Y-774674D03*
G36*
X18194Y-774182D02*
X17319Y-774182D01*
X17319Y-775166D01*
X18194Y-775166D01*
X18194Y-774182D01*
G37*
X17756Y-774674D03*
G36*
X25590Y-778410D02*
X25590Y-779271D01*
X26451Y-779271D01*
X26451Y-778410D01*
X25590Y-778410D01*
G37*
D16*
X26020Y-778841D03*
G36*
X26451Y-775632D02*
X25590Y-775632D01*
X25590Y-776494D01*
X26451Y-776494D01*
X26451Y-775632D01*
G37*
X26020Y-776063D03*
D17*
X26020Y-777452D03*
D16*
X26020Y-777452D03*
G36*
X22458Y-775097D02*
X23333Y-775097D01*
X23333Y-774112D01*
X22458Y-774112D01*
X22458Y-775097D01*
G37*
D18*
X22895Y-774605D03*
G36*
X20930Y-775097D02*
X21805Y-775097D01*
X21805Y-774112D01*
X20930Y-774112D01*
X20930Y-775097D01*
G37*
X21368Y-774605D03*
G36*
X17520Y-780757D02*
X17520Y-779702D01*
X16465Y-779702D01*
X16465Y-780757D01*
X17520Y-780757D01*
G37*
D19*
X16993Y-780230D03*
D20*
X18381Y-780230D03*
D19*
X18381Y-780230D03*
D20*
X19770Y-780230D03*
D19*
X19770Y-780230D03*
D21*
X12826Y-777452D03*
D19*
X12826Y-777452D03*
D21*
X12826Y-776063D03*
D19*
X12826Y-776063D03*
D21*
X12826Y-780230D03*
D19*
X12826Y-780230D03*
D21*
X12826Y-778841D03*
D19*
X12826Y-778841D03*
G36*
X16625Y-776556D02*
X17472Y-776556D01*
X17472Y-776264D01*
X16625Y-776264D01*
X16625Y-776556D01*
G37*
D18*
X17048Y-776410D03*
G36*
X16625Y-777250D02*
X17472Y-777250D01*
X17472Y-776959D01*
X16625Y-776959D01*
X16625Y-777250D01*
G37*
X17048Y-777105D03*
G36*
X16625Y-777945D02*
X17472Y-777945D01*
X17472Y-777653D01*
X16625Y-777653D01*
X16625Y-777945D01*
G37*
X17048Y-777799D03*
G36*
X16625Y-778639D02*
X17472Y-778639D01*
X17472Y-778348D01*
X16625Y-778348D01*
X16625Y-778639D01*
G37*
X17048Y-778494D03*
G36*
X20680Y-778639D02*
X21527Y-778639D01*
X21527Y-778348D01*
X20680Y-778348D01*
X20680Y-778639D01*
G37*
X21104Y-778494D03*
G36*
X20680Y-777945D02*
X21527Y-777945D01*
X21527Y-777653D01*
X20680Y-777653D01*
X20680Y-777945D01*
G37*
X21104Y-777799D03*
G36*
X20680Y-777250D02*
X21527Y-777250D01*
X21527Y-776959D01*
X20680Y-776959D01*
X20680Y-777250D01*
G37*
X21104Y-777105D03*
G36*
X20680Y-776556D02*
X21527Y-776556D01*
X21527Y-776264D01*
X20680Y-776264D01*
X20680Y-776556D01*
G37*
X21104Y-776410D03*
G36*
X23158Y-778255D02*
X23158Y-777621D01*
X22355Y-777621D01*
X22355Y-778255D01*
X23158Y-778255D01*
G37*
X22757Y-777938D03*
G36*
X23158Y-777144D02*
X23158Y-776510D01*
X22355Y-776510D01*
X22355Y-777144D01*
X23158Y-777144D01*
G37*
X22757Y-776827D03*
G36*
X24339Y-778255D02*
X24339Y-777621D01*
X23535Y-777621D01*
X23535Y-778255D01*
X24339Y-778255D01*
G37*
X23937Y-777938D03*
G36*
X24339Y-777144D02*
X24339Y-776510D01*
X23535Y-776510D01*
X23535Y-777144D01*
X24339Y-777144D01*
G37*
X23937Y-776827D03*
D22*
X24076Y-779188D03*
X24076Y-779882D03*
X23381Y-779188D03*
X23381Y-779882D03*
X22687Y-779188D03*
X22687Y-779882D03*
G36*
X18121Y-772073D02*
X17253Y-772073D01*
X17253Y-773108D01*
X18121Y-773108D01*
X18121Y-772073D01*
G37*
D18*
X17687Y-772591D03*
G36*
X18399Y-773046D02*
X18399Y-773219D01*
X19281Y-773219D01*
X19281Y-773046D01*
X18399Y-773046D01*
G37*
X18840Y-773132D03*
G36*
X18399Y-772782D02*
X18399Y-772955D01*
X19281Y-772955D01*
X19281Y-772782D01*
X18399Y-772782D01*
G37*
X18840Y-772869D03*
G36*
X18399Y-772504D02*
X18399Y-772678D01*
X19281Y-772678D01*
X19281Y-772504D01*
X18399Y-772504D01*
G37*
X18840Y-772591D03*
G36*
X18399Y-772226D02*
X18399Y-772400D01*
X19281Y-772400D01*
X19281Y-772226D01*
X18399Y-772226D01*
G37*
X18840Y-772313D03*
G36*
X18399Y-771962D02*
X18399Y-772136D01*
X19281Y-772136D01*
X19281Y-771962D01*
X18399Y-771962D01*
G37*
X18840Y-772049D03*
G36*
X16093Y-773046D02*
X16093Y-773219D01*
X16975Y-773219D01*
X16975Y-773046D01*
X16093Y-773046D01*
G37*
X16534Y-773132D03*
G36*
X16093Y-772782D02*
X16093Y-772955D01*
X16975Y-772955D01*
X16975Y-772782D01*
X16093Y-772782D01*
G37*
X16534Y-772869D03*
G36*
X16093Y-772504D02*
X16093Y-772678D01*
X16975Y-772678D01*
X16975Y-772504D01*
X16093Y-772504D01*
G37*
X16534Y-772591D03*
G36*
X16093Y-772226D02*
X16093Y-772400D01*
X16975Y-772400D01*
X16975Y-772226D01*
X16093Y-772226D01*
G37*
X16534Y-772313D03*
G36*
X16093Y-771962D02*
X16093Y-772136D01*
X16975Y-772136D01*
X16975Y-771962D01*
X16093Y-771962D01*
G37*
X16534Y-772049D03*
G36*
X21420Y-773108D02*
X22288Y-773108D01*
X22288Y-772073D01*
X21420Y-772073D01*
X21420Y-773108D01*
G37*
X21854Y-772591D03*
G36*
X21142Y-772136D02*
X21142Y-771962D01*
X20260Y-771962D01*
X20260Y-772136D01*
X21142Y-772136D01*
G37*
X20701Y-772049D03*
G36*
X21142Y-772400D02*
X21142Y-772226D01*
X20260Y-772226D01*
X20260Y-772400D01*
X21142Y-772400D01*
G37*
X20701Y-772313D03*
G36*
X21142Y-772678D02*
X21142Y-772504D01*
X20260Y-772504D01*
X20260Y-772678D01*
X21142Y-772678D01*
G37*
X20701Y-772591D03*
G36*
X21142Y-772955D02*
X21142Y-772782D01*
X20260Y-772782D01*
X20260Y-772955D01*
X21142Y-772955D01*
G37*
X20701Y-772869D03*
G36*
X21142Y-773219D02*
X21142Y-773046D01*
X20260Y-773046D01*
X20260Y-773219D01*
X21142Y-773219D01*
G37*
X20701Y-773132D03*
G36*
X23447Y-772136D02*
X23447Y-771962D01*
X22565Y-771962D01*
X22565Y-772136D01*
X23447Y-772136D01*
G37*
X23006Y-772049D03*
G36*
X23447Y-772400D02*
X23447Y-772226D01*
X22565Y-772226D01*
X22565Y-772400D01*
X23447Y-772400D01*
G37*
X23006Y-772313D03*
G36*
X23447Y-772678D02*
X23447Y-772504D01*
X22565Y-772504D01*
X22565Y-772678D01*
X23447Y-772678D01*
G37*
X23006Y-772591D03*
G36*
X23447Y-772955D02*
X23447Y-772782D01*
X22565Y-772782D01*
X22565Y-772955D01*
X23447Y-772955D01*
G37*
X23006Y-772869D03*
G36*
X23447Y-773219D02*
X23447Y-773046D01*
X22565Y-773046D01*
X22565Y-773219D01*
X23447Y-773219D01*
G37*
X23006Y-773132D03*
D10*
X24145Y-772730D02*
X24145Y-773325D01*
X24145Y-772730D02*
X24373Y-773325D01*
X24599Y-772730D02*
X24373Y-773325D01*
X24599Y-772730D02*
X24599Y-773325D01*
X24816Y-772871D02*
X24816Y-772842D01*
X24844Y-772785D01*
X24873Y-772757D01*
X24930Y-772730D01*
X25043Y-772730D01*
X25100Y-772757D01*
X25129Y-772785D01*
X25156Y-772842D01*
X25156Y-772899D01*
X25129Y-772956D01*
X25072Y-773042D01*
X24787Y-773325D01*
X25186Y-773325D01*
G36*
X24599Y-773325D01*
X24373Y-773325D01*
X24145Y-772730D01*
X25043Y-772730D01*
X25100Y-772757D01*
X25129Y-772785D01*
X25156Y-772842D01*
X25186Y-773325D01*
G37*
X17865Y-776560D02*
X17865Y-776788D01*
X17770Y-776617D02*
X17959Y-776731D01*
X17959Y-776617D02*
X17770Y-776731D01*
G36*
X17865Y-776560D02*
X17959Y-776617D01*
X17959Y-776731D01*
X17865Y-776788D01*
X17770Y-776731D01*
X17770Y-776617D01*
X17865Y-776560D01*
G37*
X16538Y12659D02*
X16557Y12659D01*
X16574Y12651D01*
X16586Y12639D01*
X16598Y12627D01*
X16606Y12610D01*
X16606Y12591D01*
X16606Y12572D01*
X16598Y12555D01*
X16586Y12543D01*
X16573Y12531D01*
X16556Y12523D01*
X16538Y12523D01*
X16519Y12523D01*
X16502Y12531D01*
X16490Y12543D01*
X16477Y12555D01*
X16470Y12572D01*
X16470Y12591D01*
X16470Y12610D01*
X16477Y12627D01*
X16489Y12639D01*
X16501Y12651D01*
X16518Y12659D01*
X16537Y12659D01*
X23002Y14381D02*
X22984Y14382D01*
X22967Y14389D01*
X22954Y14402D01*
X22942Y14414D01*
X22935Y14431D01*
X22935Y14450D01*
X22935Y14469D01*
X22943Y14485D01*
X22955Y14498D01*
X22967Y14510D01*
X22984Y14518D01*
X23003Y14518D01*
X23022Y14518D01*
X23039Y14510D01*
X23051Y14498D01*
X23063Y14485D01*
X23071Y14469D01*
X23071Y14450D01*
X23071Y14431D01*
X23064Y14414D01*
X23051Y14402D01*
X23039Y14389D01*
X23022Y14382D01*
X23004Y14381D01*
X19770Y21854D02*
X19693Y21970D01*
X19602Y22074D01*
X19501Y22166D01*
X19400Y22257D01*
X19288Y22336D01*
X19169Y22400D01*
X19050Y22463D01*
X18923Y22513D01*
X18790Y22546D01*
X18658Y22580D01*
X18521Y22597D01*
X18381Y22597D01*
X18242Y22597D01*
X18105Y22580D01*
X17973Y22546D01*
X17840Y22513D01*
X17713Y22463D01*
X17594Y22400D01*
X17474Y22336D01*
X17363Y22257D01*
X17262Y22166D01*
X17161Y22074D01*
X17070Y21970D01*
X16993Y21854D01*
X13798Y-775855D02*
X13798Y-776292D01*
X13798Y-775855D02*
X13986Y-775855D01*
X14048Y-775875D01*
X14069Y-775896D01*
X14090Y-775938D01*
X14090Y-776000D01*
X14069Y-776042D01*
X14048Y-776063D01*
X13986Y-776084D01*
X13798Y-776084D01*
X14227Y-775855D02*
X14227Y-776292D01*
X14519Y-775855D02*
X14519Y-776292D01*
X14227Y-776063D02*
X14519Y-776063D01*
X14781Y-775855D02*
X14719Y-775875D01*
X14677Y-775938D01*
X14656Y-776042D01*
X14656Y-776105D01*
X14677Y-776209D01*
X14719Y-776271D01*
X14781Y-776292D01*
X14823Y-776292D01*
X14886Y-776271D01*
X14927Y-776209D01*
X14948Y-776105D01*
X14948Y-776042D01*
X14927Y-775938D01*
X14886Y-775875D01*
X14823Y-775855D01*
X14781Y-775855D01*
X15086Y-775938D02*
X15127Y-775917D01*
X15190Y-775855D01*
X15190Y-776292D01*
G36*
X15190Y-775855D02*
X15190Y-776292D01*
X13798Y-776292D01*
X13798Y-775855D01*
X13986Y-775855D01*
X13798Y-775855D01*
X14823Y-775855D01*
X15190Y-775855D01*
G37*
M02*
